<svg width="239" height="56" viewBox="0 0 239 56" fill="none" xmlns="http://www.w3.org/2000/svg">
<path d="M230.53 27.5333V8.46588H211.821L218.142 0H239V21.1775L230.53 27.5333ZM7.92599 55.0794V17.1482H0V55.0794H7.92599ZM15.2994 55.0794H22.5779V35.2995C23.897 33.8586 25.6962 32.9546 27.6342 32.7591C28.0779 32.7071 28.5263 32.8034 28.9102 33.0332C29.2941 33.263 29.592 33.6135 29.758 34.0306C30.0264 34.9672 30.1333 35.9432 30.0742 36.9162V55.1296H37.2289V34.7192C37.2684 33.3698 37.076 32.0237 36.6602 30.7402C36.1989 29.4828 35.301 28.4355 34.1321 27.7915C32.8681 27.0328 31.4198 26.6411 29.9479 26.6598C28.216 26.6338 26.5047 27.0399 24.967 27.8418C23.4754 28.7571 22.4389 29.4431 21.7558 29.9263C21.7312 28.6905 21.3777 27.484 20.732 26.4322L14.2722 28.2832C14.9643 30.3942 15.2967 32.6076 15.2553 34.8299L15.2994 55.0794ZM51.9528 18.6975L44.6082 20.5537C44.3542 22.7561 44.2316 24.9718 44.2413 27.189H41.464V31.9307H44.2455V47.3762C44.1948 48.8292 44.3611 50.2816 44.7388 51.685C45.2344 52.97 46.1904 54.0219 47.4186 54.6337C48.9009 55.4066 50.553 55.7914 52.2223 55.7526C54.2493 55.7155 56.2499 55.2837 58.1134 54.4811L57.1905 50.1084C56.3501 50.405 55.4743 50.5887 54.5861 50.6547C54.1235 50.7217 53.6516 50.6745 53.2112 50.5173C52.7707 50.3601 52.375 50.0975 52.0579 49.7522C51.5074 48.6481 51.2794 47.4097 51.4003 46.1806V31.9443H56.0904L57.949 27.0757H51.5138C51.5032 24.2698 51.6381 21.4654 51.9181 18.6737L51.9528 18.6975ZM60.878 55.087H68.1218V35.3157C68.6406 34.6124 69.3097 34.0349 70.0797 33.6258C70.8497 33.2167 71.701 32.9864 72.5712 32.9517C73.3134 32.9533 74.0434 33.1411 74.6951 33.4979L76.7088 27.0492C75.8532 26.6662 74.9274 26.467 73.9908 26.4646C73.1725 26.4292 72.3565 26.5767 71.6017 26.8967C69.9594 27.7102 68.5466 28.9254 67.4929 30.4308C67.4131 29.0362 67.0245 27.677 66.3556 26.4527L59.8449 28.2193C60.6535 30.8684 61.004 33.6374 60.8814 36.4057L60.878 55.087ZM80.3964 51.7438C81.5216 53.0352 82.9191 54.0579 84.4872 54.7374C86.0553 55.4169 87.7543 55.736 89.4606 55.6717C91.1762 55.7334 92.8844 55.4154 94.4644 54.74C96.0443 54.0647 97.4573 53.0485 98.6036 51.7634C100.904 49.1704 102.055 45.5772 102.055 40.9838C102.246 37.3146 101.105 33.7005 98.8435 30.8143C97.6943 29.4335 96.2454 28.3362 94.6084 27.6067C92.9713 26.8773 91.1896 26.5353 89.4004 26.6069C87.6975 26.5441 86.0023 26.8668 84.4401 27.5511C82.8778 28.2353 81.4884 29.2637 80.3743 30.5604C77.9901 33.563 76.7767 37.3368 76.9614 41.1747C76.7687 45.0056 77.9935 48.7725 80.3998 51.7489L80.3964 51.7438ZM94.1626 40.9139C94.1626 47.2106 92.6625 50.359 89.6623 50.359C88.8886 50.4305 88.1124 50.2522 87.4464 49.8499C86.7804 49.4476 86.2592 48.8423 85.9586 48.1219C85.2053 45.8422 84.8836 43.4406 85.0103 41.0417C84.9332 38.9423 85.1893 36.844 85.7688 34.8257C85.9734 33.9819 86.4639 33.236 87.1561 32.7164C87.8482 32.1968 88.6987 31.9359 89.5614 31.9784C90.1649 31.9544 90.7654 32.0756 91.3129 32.3321C91.8604 32.5885 92.3391 32.9727 92.7091 33.4528C93.6702 34.737 94.1626 37.2153 94.1626 40.9147V40.9139ZM107.183 55.0487H114.452V35.2995C115.771 33.8579 117.57 32.9533 119.508 32.7574C119.951 32.7042 120.398 32.8002 120.78 33.0303C121.162 33.2605 121.458 33.6117 121.62 34.0289C121.905 34.9622 122.016 35.9404 121.948 36.9145V55.1296H129.103V34.7192C129.151 33.3713 128.967 32.0252 128.56 30.7402C128.099 29.4828 127.201 28.4355 126.032 27.7915C124.767 27.0345 123.319 26.6429 121.848 26.6598C120.091 26.6244 118.353 27.0307 116.791 27.8418C115.312 28.7571 114.263 29.4431 113.593 29.9263C113.558 28.6904 113.2 27.4855 112.556 26.4322L106.185 28.2884C106.88 30.3984 107.209 32.6128 107.158 34.835L107.183 55.0487ZM137.333 28.9011C136.377 29.7043 135.617 30.7159 135.109 31.859C134.601 33.0021 134.358 34.2467 134.4 35.4981C134.317 37.3073 134.877 39.0873 135.98 40.5193C137.257 42.0626 139.059 43.073 141.036 43.3538L144.336 43.964C147.193 44.4753 148.621 45.6292 148.621 47.4086C148.627 47.8422 148.534 48.2714 148.35 48.6635C148.166 49.0556 147.895 49.4003 147.559 49.6712C146.82 50.2813 145.887 50.6018 144.931 50.5737C141.628 50.3834 138.439 49.2922 135.706 47.4171L133.102 52.769C136.546 54.7397 140.413 55.8432 144.374 55.9853C147.464 56.1315 150.508 55.1857 152.977 53.3119C154.036 52.48 154.886 51.409 155.457 50.1856C156.028 48.9622 156.304 47.6208 156.264 46.27C156.317 44.5569 155.781 42.8777 154.747 41.5155C153.289 39.8671 151.328 38.7535 149.172 38.3504L145.809 37.4735C143.495 36.8633 142.334 35.9097 142.334 34.639C142.334 32.8213 143.509 31.906 145.848 31.906C148.256 32.0418 150.601 32.7335 152.7 33.9274L155.089 28.9846C152.017 27.3641 148.617 26.4691 145.149 26.3675C142.327 26.2499 139.556 27.1517 137.337 28.9096L137.333 28.9011ZM162.616 51.7822C163.741 53.0735 165.139 54.0962 166.707 54.7757C168.275 55.4552 169.974 55.7744 171.68 55.71C173.405 55.7824 175.125 55.4701 176.716 54.7954C178.307 54.1207 179.73 53.1005 180.883 51.8077C183.184 49.2147 184.334 45.6215 184.334 41.0281C184.525 37.3589 183.384 33.7448 181.123 30.8586C179.974 29.4778 178.525 28.3805 176.888 27.6511C175.251 26.9217 173.469 26.5796 171.68 26.6513C169.985 26.586 168.298 26.9026 166.74 27.5778C165.183 28.253 163.796 29.2697 162.679 30.5535C160.295 33.5561 159.082 37.33 159.266 41.1678C159.06 44.9942 160.276 48.7611 162.679 51.7353L162.616 51.7822ZM174.916 33.503C175.89 34.7745 176.382 37.3167 176.407 40.965C176.407 47.3208 174.916 50.4101 171.907 50.4101C171.139 50.4734 170.372 50.2911 169.713 49.8894C169.055 49.4876 168.539 48.8869 168.241 48.173C167.487 45.8933 167.166 43.4918 167.292 41.0928C167.217 38.9933 167.474 36.8949 168.055 34.8768C168.26 34.033 168.75 33.2872 169.442 32.7676C170.135 32.248 170.985 31.987 171.848 32.0296C172.451 32.0055 173.052 32.1268 173.599 32.3832C174.147 32.6397 174.625 33.0239 174.995 33.5039L174.916 33.503ZM198.467 14.6265C197.269 14.5464 196.067 14.705 194.93 15.0933C193.793 15.4816 192.744 16.0919 191.842 16.8892C191.031 17.7377 190.402 18.7463 189.998 19.8512C189.593 20.9562 189.421 22.1335 189.491 23.3089C189.5 24.5849 189.592 25.8589 189.769 27.1225H187.09V32.2068H189.479V55.0922H196.646V32.2111H201.841L203.7 27.1268H196.659V23.1478C196.659 21.0377 197.67 19.9827 199.693 19.9827C200.745 20.0789 201.765 20.395 202.689 20.9107L205.027 16.3855C203.031 15.2372 200.771 14.6324 198.472 14.6308L198.467 14.6265ZM216.253 18.6686L208.871 20.5247C208.656 22.7381 208.567 24.962 208.605 27.1856H205.837V31.9273H208.58V47.3762C208.519 48.8288 208.681 50.2822 209.061 51.685C209.557 52.9735 210.519 54.0264 211.753 54.6337C213.235 55.4076 214.887 55.7925 216.557 55.7526C218.584 55.713 220.584 55.2813 222.448 54.4811L221.525 50.1084C220.684 50.4032 219.809 50.5868 218.921 50.6547C218.458 50.7205 217.987 50.6728 217.546 50.5157C217.106 50.3585 216.71 50.0966 216.392 49.7522C215.854 48.6442 215.631 47.4081 215.747 46.1806V31.9443H220.439L222.285 27.0757H215.778C215.786 24.2683 215.947 21.4635 216.259 18.6737L216.253 18.6686Z" fill="#000EE6"/>
</svg>
