<svg width="298" height="48" viewBox="0 0 298 48" fill="none" xmlns="http://www.w3.org/2000/svg">
<path d="M1.15234 13.8828C1.17839 13.5833 1.19792 13.2969 1.21094 13.0234C1.22396 12.75 1.23047 12.4505 1.23047 12.125C1.23047 11.7865 1.22396 11.487 1.21094 11.2266C1.19792 10.9531 1.17839 10.6797 1.15234 10.4062C2.59766 10.4844 3.88672 10.543 5.01953 10.582C6.16536 10.6211 7.16146 10.6406 8.00781 10.6406C8.86719 10.6406 9.8763 10.6211 11.0352 10.582C12.194 10.543 13.4766 10.4844 14.8828 10.4062C14.8438 10.7578 14.8112 11.0768 14.7852 11.3633C14.7721 11.6497 14.7656 11.9036 14.7656 12.125C14.7656 12.3073 14.7786 12.5938 14.8047 12.9844C14.8438 13.375 14.8698 13.6745 14.8828 13.8828L11.4453 13.6484V35.7578L14.9219 35.4844C14.8828 35.8359 14.8503 36.1615 14.8242 36.4609C14.8112 36.7604 14.8047 37.0339 14.8047 37.2812C14.8047 37.4505 14.8177 37.7305 14.8438 38.1211C14.8828 38.5117 14.9089 38.8047 14.9219 39C13.3203 38.9219 11.9401 38.8633 10.7812 38.8242C9.6224 38.7852 8.6849 38.7656 7.96875 38.7656C7.14844 38.7656 5.52734 38.8177 3.10547 38.9219C2.25911 38.9609 1.61458 38.987 1.17188 39C1.17188 38.8568 1.17839 38.6615 1.19141 38.4141C1.21745 37.8542 1.23047 37.4766 1.23047 37.2812C1.23047 36.9427 1.22396 36.6367 1.21094 36.3633C1.19792 36.0768 1.17839 35.7839 1.15234 35.4844L4.60938 35.7578V13.6484L1.15234 13.8828ZM19.6484 21.2461L16.6602 21.4023C16.6862 21.1549 16.7057 20.9206 16.7188 20.6992C16.7318 20.4648 16.7383 20.2044 16.7383 19.918C16.7383 19.6315 16.7318 19.3711 16.7188 19.1367C16.7057 18.8893 16.6862 18.6289 16.6602 18.3555C17.6628 18.4336 18.5482 18.4987 19.3164 18.5508C20.0846 18.5898 20.7422 18.6094 21.2891 18.6094C21.9271 18.6094 23.0729 18.5443 24.7266 18.4141C25.0911 18.388 25.3581 18.3685 25.5273 18.3555L26.0547 20.9922C26.7188 19.9375 27.5391 19.1432 28.5156 18.6094C29.5052 18.0755 30.6445 17.8086 31.9336 17.8086C34.3815 17.8086 36.1393 18.4857 37.207 19.8398C38.2747 21.181 38.8086 23.4336 38.8086 26.5977V36.1289L41.4648 35.9141C41.4518 36.0052 41.4388 36.1224 41.4258 36.2656C41.3867 36.8125 41.3672 37.1901 41.3672 37.3984C41.3672 37.776 41.3737 38.082 41.3867 38.3164C41.3997 38.5508 41.4258 38.7786 41.4648 39C40.2148 38.9219 39.1016 38.8633 38.125 38.8242C37.1484 38.7852 36.2956 38.7656 35.5664 38.7656C35.0326 38.7656 34.3229 38.7852 33.4375 38.8242C32.5651 38.8633 31.5039 38.9219 30.2539 39C30.2669 38.8828 30.2799 38.7201 30.293 38.5117C30.319 38.043 30.332 37.724 30.332 37.5547C30.332 37.1771 30.3255 36.8711 30.3125 36.6367C30.2995 36.3893 30.2799 36.1484 30.2539 35.9141L32.4219 36.1289V26.207C32.4219 24.4883 32.1745 23.2578 31.6797 22.5156C31.1979 21.7734 30.4036 21.4023 29.2969 21.4023C28.1901 21.4023 27.3698 21.8385 26.8359 22.7109C26.3151 23.5703 26.0547 24.918 26.0547 26.7539V36.1289L28.2617 35.9141C28.2487 35.9792 28.2422 36.0638 28.2422 36.168C28.2031 36.7799 28.1836 37.2031 28.1836 37.4375C28.1836 37.6849 28.2031 38.1536 28.2422 38.8438C28.2552 38.9089 28.2552 38.9609 28.2422 39C27.8646 38.987 27.3112 38.9609 26.582 38.9219C24.5508 38.8177 23.1901 38.7656 22.5 38.7656C21.862 38.7656 21.0612 38.7852 20.0977 38.8242C19.1341 38.8633 18.0013 38.9219 16.6992 39C16.7253 38.7396 16.7448 38.4922 16.7578 38.2578C16.7708 38.0104 16.7773 37.737 16.7773 37.4375C16.7773 37.138 16.7708 36.8711 16.7578 36.6367C16.7448 36.4023 16.7253 36.1615 16.6992 35.9141L19.6484 36.1289V21.2461ZM46.1523 11.8711H51.6992V18.5117L57.4609 18.3555C57.4479 18.5247 57.4349 18.694 57.4219 18.8633C57.4219 19.0195 57.4219 19.2539 57.4219 19.5664C57.4219 19.8138 57.4219 20.1003 57.4219 20.4258C57.4349 20.7383 57.4479 21.0768 57.4609 21.4414L51.6992 21.2461V31.793C51.6992 33.3164 51.849 34.3711 52.1484 34.957C52.4609 35.543 52.9818 35.8359 53.7109 35.8359C54.4922 35.8359 55.1042 35.4714 55.5469 34.7422C56.0026 34 56.2305 32.9779 56.2305 31.6758V31.3633H58.5156V31.832C58.5156 34.5143 57.9753 36.487 56.8945 37.75C55.8268 39.013 54.1536 39.6445 51.875 39.6445C49.4922 39.6445 47.7995 39.0781 46.7969 37.9453C45.8073 36.7995 45.3125 34.8333 45.3125 32.0469V21.2461L42.1094 21.4219C42.1224 21.1875 42.1354 20.9531 42.1484 20.7188C42.1484 20.4714 42.1484 20.1784 42.1484 19.8398C42.1484 19.5924 42.1484 19.3516 42.1484 19.1172C42.1354 18.8698 42.1224 18.6159 42.1094 18.3555L45.3125 18.5117L46.1523 11.8711ZM78.3008 27.3203H73.5352V25.5625C73.5352 24.013 73.3984 22.9714 73.125 22.4375C72.8646 21.9036 72.4023 21.6367 71.7383 21.6367C70.8138 21.6367 70.1497 22.0013 69.7461 22.7305C69.3424 23.4466 69.1406 24.6445 69.1406 26.3242V36.1289L72.2266 35.9141C72.2135 36.0964 72.1875 36.3633 72.1484 36.7148C72.1224 37.0664 72.1094 37.3203 72.1094 37.4766C72.1094 37.6719 72.1159 37.8932 72.1289 38.1406C72.1549 38.388 72.181 38.6745 72.207 39C70.8789 38.9219 69.681 38.8633 68.6133 38.8242C67.5586 38.7852 66.6406 38.7656 65.8594 38.7656C65.1302 38.7656 63.7044 38.8177 61.582 38.9219C60.8138 38.9609 60.2279 38.987 59.8242 39C59.8503 38.7526 59.8698 38.5117 59.8828 38.2773C59.8958 38.043 59.9023 37.776 59.9023 37.4766C59.9023 37.3333 59.8893 37.0208 59.8633 36.5391C59.8372 36.2656 59.8242 36.0573 59.8242 35.9141L62.7344 36.1289V21.2461L59.8242 21.4414C59.8503 21.168 59.8698 20.9076 59.8828 20.6602C59.8958 20.4128 59.9023 20.1393 59.9023 19.8398C59.9023 19.5534 59.8958 19.2995 59.8828 19.0781C59.8698 18.8438 59.8503 18.6094 59.8242 18.375C60.1888 18.388 60.6836 18.4141 61.3086 18.4531C62.832 18.5573 63.8411 18.6094 64.3359 18.6094C64.9089 18.6094 65.9701 18.5508 67.5195 18.4336C67.9753 18.4076 68.3268 18.3815 68.5742 18.3555L69.1406 21.168C69.6354 19.944 70.2539 19.0651 70.9961 18.5312C71.7383 17.9844 72.7214 17.7109 73.9453 17.7109C75.5339 17.7109 76.6536 18.2253 77.3047 19.2539C77.9688 20.2826 78.3008 22.1185 78.3008 24.7617V27.3203ZM86.6602 28.6875C86.6602 31.9688 86.9271 34.1497 87.4609 35.2305C88.0078 36.2982 88.9844 36.832 90.3906 36.832C91.7969 36.832 92.7669 36.2982 93.3008 35.2305C93.8346 34.1497 94.1016 31.9688 94.1016 28.6875C94.1016 25.4062 93.8346 23.2318 93.3008 22.1641C92.7669 21.0964 91.7969 20.5625 90.3906 20.5625C88.9844 20.5625 88.0078 21.0964 87.4609 22.1641C86.9271 23.2318 86.6602 25.4062 86.6602 28.6875ZM100.586 28.6875C100.586 32.5286 99.7786 35.3151 98.1641 37.0469C96.5495 38.7786 93.9583 39.6445 90.3906 39.6445C86.8099 39.6445 84.2122 38.7786 82.5977 37.0469C80.9961 35.3151 80.1953 32.5286 80.1953 28.6875C80.1953 24.8333 80.9961 22.0404 82.5977 20.3086C84.2122 18.5768 86.8099 17.7109 90.3906 17.7109C93.9583 17.7109 96.5495 18.5768 98.1641 20.3086C99.7786 22.0404 100.586 24.8333 100.586 28.6875ZM105.547 21.2461L102.559 21.4023C102.585 21.1549 102.604 20.9206 102.617 20.6992C102.63 20.4648 102.637 20.2044 102.637 19.918C102.637 19.6315 102.63 19.3711 102.617 19.1367C102.604 18.8893 102.585 18.6289 102.559 18.3555C103.561 18.4336 104.447 18.4987 105.215 18.5508C105.983 18.5898 106.641 18.6094 107.188 18.6094C107.826 18.6094 108.971 18.5443 110.625 18.4141C110.99 18.388 111.257 18.3685 111.426 18.3555L111.953 20.9922C112.617 19.9375 113.438 19.1432 114.414 18.6094C115.404 18.0755 116.543 17.8086 117.832 17.8086C120.28 17.8086 122.038 18.4857 123.105 19.8398C124.173 21.181 124.707 23.4336 124.707 26.5977V36.1289L127.363 35.9141C127.35 36.0052 127.337 36.1224 127.324 36.2656C127.285 36.8125 127.266 37.1901 127.266 37.3984C127.266 37.776 127.272 38.082 127.285 38.3164C127.298 38.5508 127.324 38.7786 127.363 39C126.113 38.9219 125 38.8633 124.023 38.8242C123.047 38.7852 122.194 38.7656 121.465 38.7656C120.931 38.7656 120.221 38.7852 119.336 38.8242C118.464 38.8633 117.402 38.9219 116.152 39C116.165 38.8828 116.178 38.7201 116.191 38.5117C116.217 38.043 116.23 37.724 116.23 37.5547C116.23 37.1771 116.224 36.8711 116.211 36.6367C116.198 36.3893 116.178 36.1484 116.152 35.9141L118.32 36.1289V26.207C118.32 24.4883 118.073 23.2578 117.578 22.5156C117.096 21.7734 116.302 21.4023 115.195 21.4023C114.089 21.4023 113.268 21.8385 112.734 22.7109C112.214 23.5703 111.953 24.918 111.953 26.7539V36.1289L114.16 35.9141C114.147 35.9792 114.141 36.0638 114.141 36.168C114.102 36.7799 114.082 37.2031 114.082 37.4375C114.082 37.6849 114.102 38.1536 114.141 38.8438C114.154 38.9089 114.154 38.9609 114.141 39C113.763 38.987 113.21 38.9609 112.48 38.9219C110.449 38.8177 109.089 38.7656 108.398 38.7656C107.76 38.7656 106.96 38.7852 105.996 38.8242C105.033 38.8633 103.9 38.9219 102.598 39C102.624 38.7396 102.643 38.4922 102.656 38.2578C102.669 38.0104 102.676 37.737 102.676 37.4375C102.676 37.138 102.669 36.8711 102.656 36.6367C102.643 36.4023 102.624 36.1615 102.598 35.9141L105.547 36.1289V21.2461Z" fill="#000EE6"/>
<path d="M159.121 13.4336L159.375 10.4062H164.531V20.8359H159.004C159.004 20.6146 159.01 20.3867 159.023 20.1523C159.036 19.918 159.043 19.8008 159.043 19.8008C159.043 17.6003 158.561 15.9792 157.598 14.9375C156.647 13.8828 155.169 13.3555 153.164 13.3555C150.872 13.3555 149.245 14.1693 148.281 15.7969C147.331 17.4245 146.855 20.224 146.855 24.1953C146.855 28.5703 147.448 31.6758 148.633 33.5117C149.818 35.3346 151.797 36.2461 154.57 36.2461C156.966 36.2461 158.776 35.5951 160 34.293C161.237 32.9909 161.855 31.0768 161.855 28.5508C161.855 28.0299 161.842 27.5417 161.816 27.0859C161.79 26.6172 161.745 26.1745 161.68 25.7578H164.922C164.987 26.474 165.033 27.0208 165.059 27.3984C165.085 27.776 165.098 28.1211 165.098 28.4336C165.098 32.0404 164.062 34.8138 161.992 36.7539C159.935 38.681 156.979 39.6445 153.125 39.6445C148.372 39.6445 144.935 38.4336 142.812 36.0117C140.703 33.5898 139.648 29.651 139.648 24.1953C139.648 19.1042 140.521 15.4258 142.266 13.1602C144.023 10.8945 146.842 9.76172 150.723 9.76172C152.715 9.76172 154.414 10.0677 155.82 10.6797C157.227 11.2917 158.327 12.2096 159.121 13.4336ZM177.363 29.4883C176.283 29.4883 175.417 29.8008 174.766 30.4258C174.128 31.0378 173.809 31.8711 173.809 32.9258C173.809 34.0195 174.121 34.8789 174.746 35.5039C175.371 36.1289 176.23 36.4414 177.324 36.4414C178.457 36.4414 179.336 36.1224 179.961 35.4844C180.599 34.8464 180.918 33.9544 180.918 32.8086C180.918 31.832 180.592 31.0378 179.941 30.4258C179.29 29.8008 178.431 29.4883 177.363 29.4883ZM187.051 26.3633V33.043C187.051 34.0716 187.214 34.8008 187.539 35.2305C187.878 35.6602 188.431 35.875 189.199 35.875C189.408 35.875 189.57 35.875 189.688 35.875C189.805 35.862 189.909 35.849 190 35.8359V39C188.906 38.9219 188.105 38.8698 187.598 38.8438C187.103 38.8177 186.719 38.8047 186.445 38.8047C185.99 38.8047 185.443 38.8242 184.805 38.8633C184.167 38.8893 183.372 38.9349 182.422 39L181.172 36.793C180.599 37.7174 179.766 38.4271 178.672 38.9219C177.591 39.4036 176.315 39.6445 174.844 39.6445C172.461 39.6445 170.632 39.0716 169.355 37.9258C168.079 36.7799 167.441 35.1393 167.441 33.0039C167.441 30.9727 168.099 29.4036 169.414 28.2969C170.742 27.1901 172.617 26.6367 175.039 26.6367C176.328 26.6367 177.454 26.8125 178.418 27.1641C179.382 27.5026 180.189 28.0234 180.84 28.7266V26.168C180.84 23.668 180.612 22.0404 180.156 21.2852C179.701 20.5299 178.861 20.1523 177.637 20.1523C176.634 20.1523 175.885 20.4844 175.391 21.1484C174.896 21.7995 174.648 22.8021 174.648 24.1562C174.648 24.2344 174.655 24.3646 174.668 24.5469C174.681 24.7292 174.688 24.8659 174.688 24.957H169.082C169.069 24.8398 169.056 24.7161 169.043 24.5859C169.043 24.4427 169.043 24.2474 169.043 24C169.043 21.8255 169.779 20.237 171.25 19.2344C172.721 18.2188 175.052 17.7109 178.242 17.7109C181.497 17.7109 183.776 18.3294 185.078 19.5664C186.393 20.8034 187.051 23.069 187.051 26.3633ZM209.941 27.3203H205.176V25.5625C205.176 24.013 205.039 22.9714 204.766 22.4375C204.505 21.9036 204.043 21.6367 203.379 21.6367C202.454 21.6367 201.79 22.0013 201.387 22.7305C200.983 23.4466 200.781 24.6445 200.781 26.3242V36.1289L203.867 35.9141C203.854 36.0964 203.828 36.3633 203.789 36.7148C203.763 37.0664 203.75 37.3203 203.75 37.4766C203.75 37.6719 203.757 37.8932 203.77 38.1406C203.796 38.388 203.822 38.6745 203.848 39C202.52 38.9219 201.322 38.8633 200.254 38.8242C199.199 38.7852 198.281 38.7656 197.5 38.7656C196.771 38.7656 195.345 38.8177 193.223 38.9219C192.454 38.9609 191.868 38.987 191.465 39C191.491 38.7526 191.51 38.5117 191.523 38.2773C191.536 38.043 191.543 37.776 191.543 37.4766C191.543 37.3333 191.53 37.0208 191.504 36.5391C191.478 36.2656 191.465 36.0573 191.465 35.9141L194.375 36.1289V21.2461L191.465 21.4414C191.491 21.168 191.51 20.9076 191.523 20.6602C191.536 20.4128 191.543 20.1393 191.543 19.8398C191.543 19.5534 191.536 19.2995 191.523 19.0781C191.51 18.8438 191.491 18.6094 191.465 18.375C191.829 18.388 192.324 18.4141 192.949 18.4531C194.473 18.5573 195.482 18.6094 195.977 18.6094C196.549 18.6094 197.611 18.5508 199.16 18.4336C199.616 18.4076 199.967 18.3815 200.215 18.3555L200.781 21.168C201.276 19.944 201.895 19.0651 202.637 18.5312C203.379 17.9844 204.362 17.7109 205.586 17.7109C207.174 17.7109 208.294 18.2253 208.945 19.2539C209.609 20.2826 209.941 22.1185 209.941 24.7617V27.3203ZM231.035 28.6094H218.633V29.6445C218.633 32.0534 218.997 33.8242 219.727 34.957C220.456 36.0768 221.595 36.6367 223.145 36.6367C224.434 36.6367 225.423 36.2461 226.113 35.4648C226.816 34.6706 227.188 33.5312 227.227 32.0469H231.113C230.983 34.3906 230.137 36.2461 228.574 37.6133C227.012 38.9674 224.948 39.6445 222.383 39.6445C218.828 39.6445 216.185 38.7396 214.453 36.9297C212.734 35.1198 211.875 32.3594 211.875 28.6484C211.875 24.9245 212.695 22.1901 214.336 20.4453C215.977 18.6875 218.542 17.8086 222.031 17.8086C224.974 17.8086 227.207 18.681 228.73 20.4258C230.267 22.1706 231.035 24.7227 231.035 28.082V28.6094ZM225.977 25.9922C225.938 23.974 225.632 22.5026 225.059 21.5781C224.486 20.6536 223.594 20.1914 222.383 20.1914C221.133 20.1914 220.215 20.6406 219.629 21.5391C219.043 22.4245 218.698 23.9089 218.594 25.9922H225.977ZM252.52 28.6094H240.117V29.6445C240.117 32.0534 240.482 33.8242 241.211 34.957C241.94 36.0768 243.079 36.6367 244.629 36.6367C245.918 36.6367 246.908 36.2461 247.598 35.4648C248.301 34.6706 248.672 33.5312 248.711 32.0469H252.598C252.467 34.3906 251.621 36.2461 250.059 37.6133C248.496 38.9674 246.432 39.6445 243.867 39.6445C240.312 39.6445 237.669 38.7396 235.938 36.9297C234.219 35.1198 233.359 32.3594 233.359 28.6484C233.359 24.9245 234.18 22.1901 235.82 20.4453C237.461 18.6875 240.026 17.8086 243.516 17.8086C246.458 17.8086 248.691 18.681 250.215 20.4258C251.751 22.1706 252.52 24.7227 252.52 28.082V28.6094ZM247.461 25.9922C247.422 23.974 247.116 22.5026 246.543 21.5781C245.97 20.6536 245.078 20.1914 243.867 20.1914C242.617 20.1914 241.699 20.6406 241.113 21.5391C240.527 22.4245 240.182 23.9089 240.078 25.9922H247.461ZM272.715 27.3203H267.949V25.5625C267.949 24.013 267.812 22.9714 267.539 22.4375C267.279 21.9036 266.816 21.6367 266.152 21.6367C265.228 21.6367 264.564 22.0013 264.16 22.7305C263.757 23.4466 263.555 24.6445 263.555 26.3242V36.1289L266.641 35.9141C266.628 36.0964 266.602 36.3633 266.562 36.7148C266.536 37.0664 266.523 37.3203 266.523 37.4766C266.523 37.6719 266.53 37.8932 266.543 38.1406C266.569 38.388 266.595 38.6745 266.621 39C265.293 38.9219 264.095 38.8633 263.027 38.8242C261.973 38.7852 261.055 38.7656 260.273 38.7656C259.544 38.7656 258.118 38.8177 255.996 38.9219C255.228 38.9609 254.642 38.987 254.238 39C254.264 38.7526 254.284 38.5117 254.297 38.2773C254.31 38.043 254.316 37.776 254.316 37.4766C254.316 37.3333 254.303 37.0208 254.277 36.5391C254.251 36.2656 254.238 36.0573 254.238 35.9141L257.148 36.1289V21.2461L254.238 21.4414C254.264 21.168 254.284 20.9076 254.297 20.6602C254.31 20.4128 254.316 20.1393 254.316 19.8398C254.316 19.5534 254.31 19.2995 254.297 19.0781C254.284 18.8438 254.264 18.6094 254.238 18.375C254.603 18.388 255.098 18.4141 255.723 18.4531C257.246 18.5573 258.255 18.6094 258.75 18.6094C259.323 18.6094 260.384 18.5508 261.934 18.4336C262.389 18.4076 262.741 18.3815 262.988 18.3555L263.555 21.168C264.049 19.944 264.668 19.0651 265.41 18.5312C266.152 17.9844 267.135 17.7109 268.359 17.7109C269.948 17.7109 271.068 18.2253 271.719 19.2539C272.383 20.2826 272.715 22.1185 272.715 24.7617V27.3203Z" fill="#1D1D1D"/>
<path d="M290.361 25.66V10.66H275.561L280.561 4H297.061V20.66" fill="#000EE6"/>
</svg>
