<svg width="23" height="22" viewBox="0 0 23 22" fill="none" xmlns="http://www.w3.org/2000/svg">
<g clip-path="url(#clip0_176_632)">
<path d="M17.1766 0.125H8.47802C5.26655 0.125 2.6543 2.38015 2.6543 5.1522V6.36127H5.60287V5.1522C5.60287 3.78381 6.89269 2.67086 8.47802 2.67086H17.1766C18.7607 2.67086 20.0517 3.78433 20.0517 5.1522V16.0978C20.0517 17.4662 18.7619 18.5791 17.1766 18.5791H8.47802C6.89391 18.5791 5.60287 17.4657 5.60287 16.0978V14.6351H2.6543V16.0978C2.6543 18.8699 5.26655 21.125 8.47802 21.125H17.1766C20.3878 21.125 23.0003 18.8699 23.0003 16.0978V5.1522C23.0003 2.38015 20.3878 0.125 17.1766 0.125Z" fill="white"/>
<path d="M9.75657 15.5886L17.3974 10.5426L9.75657 5.59766V8.42325H0V12.46H9.75657V15.5886Z" fill="white"/>
</g>
<defs>
<clipPath id="clip0_176_632">
<rect width="23" height="21" fill="white" transform="translate(0 0.125)"/>
</clipPath>
</defs>
</svg>
